<svg xmlns="http://www.w3.org/2000/svg" viewBox="0 0 31.7 26.27"><defs><style>.cls-1{fill:#fff;}</style></defs><title>Ресурс 6</title><g id="Слой_2" data-name="Слой 2"><g id="Layer_1" data-name="Layer 1"><g id="_Группа_" data-name="&lt;Группа&gt;"><path id="_Составной_контур_" data-name="&lt;Составной контур&gt;" class="cls-1" d="M.34,26.27H6.1A.34.34,0,0,0,6.43,26L8.11,20h6.52L16.45,26a.34.34,0,0,0,.33.24h6a.34.34,0,0,0,.34-.34.34.34,0,0,0,0-.14L15.47,1.26A.34.34,0,0,0,15.14,1H7.85a.34.34,0,0,0-.33.24L0,25.83a.34.34,0,0,0,.33.44ZM13.62,15.12H9.1l1.34-4.78c.24-.86.47-1.88.69-2.86l.15-.67c.29,1.18.62,2.45.94,3.53Z"/><path id="_Контур_" data-name="&lt;Контур&gt;" class="cls-1" d="M25.63,7.76a.34.34,0,0,0-.34.34V25.93a.34.34,0,0,0,.34.34h5.54a.34.34,0,0,0,.34-.34V8.11a.34.34,0,0,0-.34-.34Z"/><path id="_Контур_2" data-name="&lt;Контур&gt;" class="cls-1" d="M28.36,6.26A3.14,3.14,0,1,0,28.4,0,3.33,3.33,0,0,0,26,.94a3,3,0,0,0-.84,2.21A3,3,0,0,0,26,5.32,3.28,3.28,0,0,0,28.36,6.26Z"/></g></g></g></svg>