<svg xmlns="http://www.w3.org/2000/svg" viewBox="0 0 32.47 39.06"><defs><style>.cls-1{fill:#fff;}</style></defs><title>Ресурс 1</title><g id="Слой_2" data-name="Слой 2"><g id="Слой_1-2" data-name="Слой 1"><g id="layer1"><g id="text3836"><path id="path3841" class="cls-1" d="M15.81,15.12a5.53,5.53,0,0,0,3.65-1,4.42,4.42,0,0,0,0-6.15A5.44,5.44,0,0,0,15.81,6.9H10.18v8.27h5.63m.31,17a7,7,0,0,0,4.6-1.28,4.72,4.72,0,0,0,1.56-3.87,4.62,4.62,0,0,0-1.53-3.79A7.09,7.09,0,0,0,16.12,22h-6V32.21h6m9.46-14a9.06,9.06,0,0,1,5.08,3.48,10.5,10.5,0,0,1,1.8,6.23q0,5.65-3.86,8.42T16.89,39.06H0V0H15.28q8.22,0,11.9,2.46t3.7,7.87a8.55,8.55,0,0,1-1.35,4.87,8,8,0,0,1-3.91,3"/></g></g></g></g></svg>