<svg xmlns="http://www.w3.org/2000/svg" viewBox="0 0 69.57 69.57"><defs><style>.cls-1{fill:#fff;}</style></defs><title>Ресурс 5</title><g id="Слой_2" data-name="Слой 2"><g id="Layer_1" data-name="Layer 1"><path class="cls-1" d="M68.25,31.68a4.48,4.48,0,0,1,0,6.34L38,68.25a4.48,4.48,0,0,1-6.34,0L1.31,37.88a4.48,4.48,0,0,1,0-6.34L22.14,10.72,30,18.61a5.33,5.33,0,0,0,2.89,7V44.7a5.35,5.35,0,1,0,4.38.16V25.93l7.19,7.19a5.34,5.34,0,1,0,3.19-3L40,22.4a5.32,5.32,0,0,0-6.74-6.78l-8-8,6.31-6.31a4.48,4.48,0,0,1,6.34,0L68.25,31.68"/></g></g></svg>