<svg xmlns="http://www.w3.org/2000/svg" viewBox="0 0 44.93 43.32"><defs><style>.cls-1{fill:#fff;}</style></defs><title>JQuery</title><g id="Слой_2" data-name="Слой 2"><g id="Layer_1" data-name="Layer 1"><path class="cls-1" d="M3,9.94c-4,5.67-3.63,13.12-.66,19.23l.22.44.14.28a1.05,1.05,0,0,0,.09.16c0,.1.1.19.15.28l.28.5.16.27.33.53.15.22c.15.24.31.47.48.71v0l.08.11.44.59L5,33.5l.41.51.16.19c.18.22.37.44.57.66h0l0,0,.58.62.19.19.46.46.19.18.63.59h0l.1.09.58.5.24.19.48.38.25.2.54.39.19.15.05,0,.52.35.22.15.82.52.22.13.61.35.33.18.44.24.1,0,.18.09.69.33.15.07.81.35.2.08.76.3.1,0,.85.29.21.06a8.62,8.62,0,0,0,.88.26c19.21,3.73,25-11.28,25-11.28-4.76,6.06-13.12,7.58-21,5.7-.3-.07-.59-.17-.88-.26l-.22-.07-.84-.28-.12,0-.75-.28-.21-.08-.8-.35-.16-.07-.68-.33-.2-.1L17.34,35,17,34.8l-.63-.36-.21-.12-.82-.51-.22-.15-.58-.39-.18-.13-.55-.41-.24-.19-.49-.4L12.84,32l-.62-.53-.07-.06-.65-.6-.18-.18c-.16-.15-.32-.31-.46-.47l-.19-.19-.57-.61,0,0c-.2-.22-.39-.44-.58-.67l-.16-.18-.41-.53-.15-.19c-.17-.22-.33-.43-.48-.65C4,21,2.51,12.76,6.09,6"/><path class="cls-1" d="M15.37,5.26c-2.93,4.11-2.84,9.66-.64,14.06A18.41,18.41,0,0,0,16,21.46a9.72,9.72,0,0,0,1.47,1.87c.21.23.41.45.63.68l.17.17.65.62,0,0h0c.24.22.5.44.76.65l.18.14c.26.2.53.41.8.59l0,0,.36.25.18.12.59.37.08,0,.52.3.19.1.36.19.05,0,.76.37.17.07.63.26.27.1.58.21.26.08a6.36,6.36,0,0,0,.84.25c14.83,2.63,18.39-8.77,18.39-8.77-3.15,4.42-9.15,6.47-15.53,4.74l-.84-.25-.25-.08-.58-.21-.26-.1L26.84,24,26.67,24c-.26-.12-.52-.24-.77-.37l-.39-.2-.22-.12L24.8,23l-.12-.07-.59-.37-.18-.12-.38-.26c-.27-.19-.54-.39-.79-.59l-.18-.15a18,18,0,0,1-6-8.72A13.38,13.38,0,0,1,17.76,2"/><path class="cls-1" d="M25.56,1.75a8.66,8.66,0,0,0-.68,8.35,11.77,11.77,0,0,0,6.75,6.32l.37.13.16.05a4.11,4.11,0,0,0,.53.15c8.21,1.59,10.43-4.21,11-5.06-1.95,2.81-5.22,3.48-9.24,2.5-.32-.08-.67-.19-1-.3s-.78-.3-1.16-.48a11.52,11.52,0,0,1-2-1.24C26.71,9.45,24.48,4.24,26.83,0"/></g></g></svg>