<svg xmlns="http://www.w3.org/2000/svg" viewBox="0 0 42.89 30.46"><title>js</title><g id="Слой_2" data-name="Слой 2"><g id="Layer_1" data-name="Layer 1"><path d="M31.48.05a9,9,0,0,0-5.77,2.48,7.49,7.49,0,0,0-2.23,5.63c0,3.46,1.42,5.88,4.59,7.79a33.22,33.22,0,0,0,3.8,1.83c2.59,1.11,3.55,1.64,4.16,2.29a2.87,2.87,0,0,1,.49,3.1,3.33,3.33,0,0,1-.55.73A4.57,4.57,0,0,1,32.65,25,6.41,6.41,0,0,1,27,21.9a3.34,3.34,0,0,0-.4-.52c-.06,0-4.77,2.72-4.87,2.81s0,.19.23.58a11.42,11.42,0,0,0,8.81,5.57,19.1,19.1,0,0,0,4,0,10,10,0,0,0,5.84-2.6,7.73,7.73,0,0,0,2.31-5.85,8.65,8.65,0,0,0-.83-4,7.11,7.11,0,0,0-1.48-2.06c-1.31-1.33-3-2.33-6.38-3.78-2.55-1.1-3.41-1.57-4-2.17a2.66,2.66,0,0,1-.72-2.1,2.31,2.31,0,0,1,.64-1.56,2.83,2.83,0,0,1,2.32-.9,3.48,3.48,0,0,1,2.76,1.1,6.52,6.52,0,0,1,.81,1c.19.3.33.47.38.45s4.67-3,4.67-3-.23-.38-.51-.81a10.54,10.54,0,0,0-2.41-2.5A9.37,9.37,0,0,0,33.44.06,9,9,0,0,0,31.48.05Z"/><path d="M12.18,11.32l0,11-.14.51a2.91,2.91,0,0,1-.76,1.45A3,3,0,0,1,9,25c-1.59,0-2.55-.67-3.66-2.57a3.21,3.21,0,0,0-.36-.53l-2.49,1.5L0,24.87l.19.37A9.26,9.26,0,0,0,5.53,29.9a12.23,12.23,0,0,0,7.88-.19c2.76-1.12,4.38-3.42,4.8-6.85,0-.35.06-4.22.06-11.51V.36H12.21Z"/></g></g></svg>