<svg xmlns="http://www.w3.org/2000/svg" viewBox="0 0 41.72 32.24"><defs><style>.cls-1{fill:#fff;}</style></defs><title>Photoshop</title><g id="Слой_2" data-name="Слой 2"><g id="Layer_1" data-name="Layer 1"><g id="_Группа_" data-name="&lt;Группа&gt;"><path id="_Составной_контур_" data-name="&lt;Составной контур&gt;" class="cls-1" d="M7.73,31.36V20.86c.56.05,1.22.08,1.94.08,4.39,0,7.94-1.16,10.27-3.35a10.29,10.29,0,0,0,3-7.6,9.37,9.37,0,0,0-3.44-7.44C17.32.84,14.16,0,9.81,0A58.09,58.09,0,0,0,.36.64.43.43,0,0,0,0,1.07V31.36a.43.43,0,0,0,.43.43H7.31A.43.43,0,0,0,7.73,31.36Zm0-16.71V6.28a13.21,13.21,0,0,1,2.44-.19c3.17,0,5,1.49,5,4.08,0,2.87-2.07,4.58-5.54,4.58A12.42,12.42,0,0,1,7.73,14.65Z"/><path id="_Контур_" data-name="&lt;Контур&gt;" class="cls-1" d="M35.37,17.34c-2.83-1-3.31-1.46-3.31-2.15,0-1.21,1.39-1.39,2.21-1.39A10.51,10.51,0,0,1,38.9,15a.43.43,0,0,0,.62-.27L40.75,10a.43.43,0,0,0-.22-.49A15.37,15.37,0,0,0,34,8.15c-5.59,0-9.49,3.17-9.49,7.71,0,2.21,1.08,5.24,6.62,7.11,2.69.9,3,1.36,3,2.15,0,.36,0,1.44-2.53,1.44a13.09,13.09,0,0,1-5.75-1.62.43.43,0,0,0-.64.26l-1.23,5a.43.43,0,0,0,.21.48,16.17,16.17,0,0,0,7.4,1.6c6.22,0,10.09-2.92,10.09-7.63C41.67,21.07,39.71,18.83,35.37,17.34Z"/></g></g></g></svg>