<svg xmlns="http://www.w3.org/2000/svg" viewBox="0 0 70.19 52.61"><defs><style>.cls-1{fill:#fff;}</style></defs><title>Sass</title><g id="Слой_2" data-name="Слой 2"><g id="Layer_1" data-name="Layer 1"><path class="cls-1" d="M60.42,30.21a14.46,14.46,0,0,0-6.36,1.48,13.08,13.08,0,0,1-1.43-3.29,9.1,9.1,0,0,1-.12-2.77,22.19,22.19,0,0,1,.84-3c0-.12-.15-.73-1.56-.74s-2.63.27-2.77.64a15.75,15.75,0,0,0-.59,2.1c-.25,1.29-2.82,5.85-4.29,8.25a8.42,8.42,0,0,1-1-2.41A9.1,9.1,0,0,1,43,27.71a22.2,22.2,0,0,1,.84-3c0-.12-.15-.73-1.56-.74s-2.63.27-2.77.64-.29,1.25-.59,2.1-3.72,8.47-4.61,10.46c-.45,1-.85,1.82-1.14,2.37s0,0,0,.1l-.38.73h0c-.19.34-.4.67-.49.67a4.57,4.57,0,0,1,0-2.18c.51-2.65,1.74-6.77,1.73-6.92s.23-.8-.8-1.17a1.25,1.25,0,0,0-1.44.25c-.08,0-.15.22-.15.22s1.11-4.65-2.12-4.65c-2,0-4.83,2.21-6.21,4.22l-4.72,2.58-2.28,1.25-.15-.16C12.26,30.32,5,27.36,5.31,21.74c.11-2,.82-7.43,13.93-14C30,2.43,38.57,3.9,40.06,7.16c2.12,4.66-4.59,13.33-15.75,14.57-4.25.48-6.48-1.17-7-1.78s-.67-.67-.89-.55-.14.77,0,1.11a6.62,6.62,0,0,0,4,3.17c2,.67,7,1,13.07-1.29,6.76-2.62,12-9.88,10.49-16S32.12-1.77,22.43,1.67c-5.77,2.06-12,5.26-16.52,9.47C.56,16.13-.29,20.49.07,22.3,1.32,28.76,10.22,33,13.78,36.08l-.49.27C11.5,37.23,4.72,40.78,3,44.54c-1.92,4.25.3,7.31,1.78,7.72,4.58,1.27,9.27-1,11.8-4.78s2.22-8.66,1.06-10.9l0-.08,1.4-.82c.9-.53,1.8-1,2.58-1.45a17.07,17.07,0,0,0-.92,4.66c-.19,2.41.8,5.54,2.1,6.77a2.32,2.32,0,0,0,1.69.55c1.51,0,2.19-1.25,2.95-2.74.93-1.82,1.75-3.93,1.75-3.93s-1,5.72,1.78,5.72c1,0,2.06-1.33,2.52-2h0l.08-.14.16-.26v0c.41-.71,1.33-2.34,2.7-5,1.77-3.48,3.47-7.84,3.47-7.84a25,25,0,0,0,.67,2.82A27,27,0,0,0,42,36c-.41.58-.66.9-.66.9h0c-.33.44-.7.9-1.08,1.37A39.84,39.84,0,0,0,37,42.45a1.13,1.13,0,0,0,.3,1.51,2.74,2.74,0,0,0,1.73.27,7.69,7.69,0,0,0,2.58-.59,8.93,8.93,0,0,0,2.22-1.17A4.94,4.94,0,0,0,46,38.11,8.79,8.79,0,0,0,45.15,35l.37-.55a57.87,57.87,0,0,0,3.84-6.65A25,25,0,0,0,50,30.65a19.8,19.8,0,0,0,1.25,2.82,12.19,12.19,0,0,0-3.74,4.84c-.81,2.33-.18,3.39,1,3.63a3.65,3.65,0,0,0,1.88-.38,8.51,8.51,0,0,0,2.37-1.22c1.37-1,2.69-2.43,2.62-4.33a8.3,8.3,0,0,0-.59-2.56,13.36,13.36,0,0,1,6.8-.78c6.1.71,7.31,4.52,7.07,6.11a4.1,4.1,0,0,1-1.93,2.74c-.42.26-.56.36-.52.55s.25.27.62.22a4.75,4.75,0,0,0,3.32-4.24c.16-3.77-3.41-7.88-9.76-7.84ZM13.37,46.07c-2,2.21-4.85,3-6.06,2.33s-.8-4,1.69-6.35a32.26,32.26,0,0,1,4.76-3.55L15,37.75l.14-.08.32-.19a8.74,8.74,0,0,1-2.08,8.6Zm14.74-10c-.7,1.71-2.18,6.11-3.07,5.87s-1.23-3.54-.15-6.83a15.24,15.24,0,0,1,2.4-4.4c1.11-1.23,2.32-1.65,2.62-1.14C30.26,30.21,28.55,35,28.11,36.05Zm12.16,5.81c-.3.15-.58.26-.7.18s.12-.26.12-.26,1.52-1.63,2.12-2.39c.34-.44.75-.95,1.19-1.52V38c0,2-1.89,3.29-2.74,3.82Zm9.38-2.14c-.22-.16-.19-.67.55-2.26a8.48,8.48,0,0,1,2.08-2.69A3.39,3.39,0,0,1,52.48,36,3.86,3.86,0,0,1,49.64,39.72Z"/></g></g></svg>